# xmcd
#
# Track frame offsets:
#	150
#	11020
#	24275
#	38610
#	50550
#	61357
#	71765
#	84435
#	94665
#	106722
#
# Disc length: 1599 seconds
#
# Revision: 1
# Processed by: cddbd v1.5.1PL2 Copyright (c) Steve Scherf et al.
# Submitted via: audiograbber 1.83.01
#
DISCID=72063d0a
DTITLE=Various Artist - Christmas Country Style
DYEAR=1977
DGENRE=Christmas
TTITLE0=Loretta Lynn - Away in A Manger
TTITLE1=Freddy Fender - Natividad Song
TTITLE2=Bill Anderson - Medley: Oh, Holy Night/Oh, Little Town of Bethlehem/Awa
TTITLE2=y in A Manger
TTITLE3=Webb Pierce - Christmas At Home
TTITLE4=Kitty Wells - Jingle Bells
TTITLE5=Ernest Tubb - Rudolph The Red-Nosed Reindeer
TTITLE6=Bill Monroe - Christmas Time's A-Coming
TTITLE7=Burl Ives - A Holly, Jolly Christmas
TTITLE8=Barbara Mandrell - Winter Wonderland
TTITLE9=Lee Greenwood - I'll Be Home For Christmas
EXTD=
EXTT0=
EXTT1=
EXTT2=
EXTT3=
EXTT4=
EXTT5=
EXTT6=
EXTT7=
EXTT8=
EXTT9=
PLAYORDER=
